<svg width="14" height="16" viewBox="0 0 14 16" fill="none" xmlns="http://www.w3.org/2000/svg">
<path d="M1 5.5H13M1 5.5V12.1001C1 12.9402 1 13.36 1.16349 13.6809C1.3073 13.9632 1.5366 14.1929 1.81885 14.3367C2.1394 14.5 2.55925 14.5 3.39768 14.5H10.6023C11.4408 14.5 11.86 14.5 12.1805 14.3367C12.4628 14.1929 12.6929 13.9632 12.8367 13.6809C13 13.3604 13 12.9411 13 12.1027V5.5M1 5.5V4.90015C1 4.06007 1 3.63972 1.16349 3.31885C1.3073 3.0366 1.5366 2.8073 1.81885 2.66349C2.13972 2.5 2.56007 2.5 3.40015 2.5H4M13 5.5V4.89768C13 4.05925 13 3.6394 12.8367 3.31885C12.6929 3.0366 12.4628 2.8073 12.1805 2.66349C11.8597 2.5 11.4402 2.5 10.6001 2.5H10M10 1V2.5M10 2.5H4M4 1V2.5" stroke="white" stroke-width="2" stroke-linecap="round" stroke-linejoin="round"/>
</svg>
