<svg width="32" height="32" viewBox="0 0 32 32" fill="none" xmlns="http://www.w3.org/2000/svg">
<g filter="url(#filter0_i_170_997)">
<circle cx="16.0001" cy="16" r="16" fill="#7F7F7F"/>
</g>
<circle cx="16.0001" cy="16" r="15.616" stroke="white" stroke-opacity="0.04" stroke-width="0.768"/>
<path d="M21.0077 13.8104L20.788 13.6882C20.7539 13.6692 20.7371 13.6597 20.7206 13.6498C20.5568 13.5516 20.4187 13.416 20.3179 13.2538C20.3077 13.2375 20.2982 13.2203 20.2787 13.1865C20.2591 13.1527 20.2492 13.1356 20.2402 13.1186C20.1498 12.9498 20.1009 12.7617 20.0979 12.5703C20.0976 12.551 20.0977 12.5314 20.0984 12.4923L20.1027 12.2371C20.1095 11.8288 20.113 11.624 20.0556 11.4402C20.0046 11.277 19.9194 11.1266 19.8055 10.999C19.6768 10.8548 19.4986 10.7518 19.1419 10.5463L18.8456 10.3756C18.4899 10.1706 18.312 10.0681 18.1232 10.029C17.9561 9.9944 17.7837 9.99601 17.6172 10.0334C17.4293 10.0756 17.2537 10.1807 16.9025 10.391L16.9005 10.392L16.6882 10.5191C16.6546 10.5392 16.6377 10.5493 16.6208 10.5587C16.4539 10.6515 16.2675 10.7028 16.0765 10.709C16.0573 10.7096 16.0377 10.7096 15.9986 10.7096C15.9597 10.7096 15.9392 10.7096 15.92 10.709C15.7287 10.7028 15.5419 10.6512 15.3747 10.558C15.3578 10.5486 15.3412 10.5384 15.3075 10.5182L15.0939 10.3899C14.7403 10.1777 14.5633 10.0714 14.3743 10.029C14.2072 9.99148 14.0342 9.99044 13.8665 10.0255C13.6772 10.065 13.4992 10.1683 13.1433 10.3749L13.1417 10.3756L12.8491 10.5454L12.8459 10.5474C12.4932 10.7521 12.3164 10.8547 12.1888 10.9983C12.0755 11.1258 11.9909 11.2759 11.9402 11.4387C11.8829 11.6228 11.886 11.828 11.8929 12.2383L11.8972 12.4931C11.8978 12.5316 11.899 12.5508 11.8987 12.5698C11.8958 12.7616 11.8463 12.9501 11.7556 13.1192C11.7467 13.1359 11.737 13.1527 11.7177 13.1861C11.6984 13.2195 11.689 13.2361 11.679 13.2522C11.5778 13.4154 11.4391 13.5518 11.2742 13.6501C11.2579 13.6598 11.2407 13.6692 11.2069 13.6879L10.99 13.8081C10.629 14.0081 10.4486 14.1082 10.3173 14.2507C10.2012 14.3767 10.1134 14.5262 10.0599 14.6889C9.99933 14.873 9.99938 15.0793 10.0003 15.492L10.0011 15.8292C10.002 16.2391 10.0033 16.444 10.064 16.6267C10.1176 16.7884 10.2047 16.937 10.3202 17.0623C10.4508 17.2039 10.6294 17.3033 10.9876 17.5026L11.2026 17.6222C11.2392 17.6426 11.2576 17.6526 11.2753 17.6633C11.4387 17.7616 11.5763 17.8977 11.6767 18.0598C11.6875 18.0774 11.6979 18.0955 11.7188 18.1319C11.7393 18.1678 11.7498 18.1858 11.7593 18.2038C11.8473 18.3704 11.8945 18.5555 11.8977 18.7439C11.898 18.7643 11.8977 18.7849 11.897 18.8262L11.8929 19.0708C11.8859 19.4824 11.8829 19.6885 11.9405 19.873C11.9915 20.0363 12.0767 20.1866 12.1906 20.3142C12.3193 20.4585 12.4977 20.5613 12.8544 20.7669L13.1506 20.9376C13.5064 21.1425 13.6841 21.2449 13.873 21.284C14.0401 21.3186 14.2126 21.3173 14.379 21.2799C14.5672 21.2377 14.7435 21.1321 15.0956 20.9212L15.3079 20.7941C15.3415 20.774 15.3585 20.7639 15.3753 20.7546C15.5423 20.6617 15.7285 20.6101 15.9195 20.604C15.9387 20.6034 15.9583 20.6034 15.9974 20.6034C16.0367 20.6034 16.0562 20.6034 16.0755 20.604C16.2668 20.6102 16.4542 20.6619 16.6214 20.7552C16.6361 20.7634 16.6509 20.7722 16.6768 20.7878L16.9024 20.9233C17.2561 21.1356 17.4327 21.2415 17.6217 21.2839C17.7888 21.3214 17.9619 21.3229 18.1296 21.2879C18.3189 21.2484 18.4972 21.1449 18.8529 20.9384L19.1499 20.7661C19.5028 20.5612 19.6798 20.4585 19.8075 20.3148C19.9207 20.1873 20.0055 20.0373 20.0562 19.8745C20.113 19.6918 20.1096 19.4881 20.1028 19.0838L20.0984 18.8201C20.0977 18.7815 20.0976 18.7623 20.0979 18.7433C20.1008 18.5515 20.1495 18.3629 20.2402 18.1938C20.2491 18.1771 20.2589 18.1602 20.2781 18.1269C20.2974 18.0935 20.3074 18.0768 20.3174 18.0607C20.4186 17.8976 20.5575 17.7611 20.7224 17.6628C20.7385 17.6532 20.7551 17.644 20.7881 17.6257L20.7892 17.6252L21.0061 17.505C21.3671 17.3049 21.5478 17.2047 21.6791 17.0623C21.7953 16.9363 21.8829 16.787 21.9365 16.6242C21.9966 16.4413 21.9962 16.2361 21.9952 15.8283L21.9945 15.4838C21.9935 15.0739 21.993 14.8691 21.9324 14.6863C21.8787 14.5246 21.7911 14.376 21.6756 14.2508C21.5452 14.1093 21.3663 14.0098 21.0088 13.8109L21.0077 13.8104Z" stroke="#6B6B6B" stroke-width="1.2" stroke-linecap="round" stroke-linejoin="round"/>
<path d="M13.598 15.6566C13.598 16.9821 14.6725 18.0566 15.998 18.0566C17.3235 18.0566 18.398 16.9821 18.398 15.6566C18.398 14.3311 17.3235 13.2566 15.998 13.2566C14.6725 13.2566 13.598 14.3311 13.598 15.6566Z" stroke="#6B6B6B" stroke-width="1.2" stroke-linecap="round" stroke-linejoin="round"/>
<defs>
<filter id="filter0_i_170_997" x="0.00012207" y="0" width="32" height="32" filterUnits="userSpaceOnUse" color-interpolation-filters="sRGB">
<feFlood flood-opacity="0" result="BackgroundImageFix"/>
<feBlend mode="normal" in="SourceGraphic" in2="BackgroundImageFix" result="shape"/>
<feColorMatrix in="SourceAlpha" type="matrix" values="0 0 0 0 0 0 0 0 0 0 0 0 0 0 0 0 0 0 127 0" result="hardAlpha"/>
<feOffset dy="0.768"/>
<feComposite in2="hardAlpha" operator="arithmetic" k2="-1" k3="1"/>
<feColorMatrix type="matrix" values="0 0 0 0 1 0 0 0 0 1 0 0 0 0 1 0 0 0 0.08 0"/>
<feBlend mode="normal" in2="shape" result="effect1_innerShadow_170_997"/>
</filter>
</defs>
</svg>
