<svg width="11" height="13" viewBox="0 0 11 13" fill="none" xmlns="http://www.w3.org/2000/svg">
<path d="M11 4.17629C11 6.48278 9.30707 8.35254 7.21875 8.35254C6.9777 8.35254 6.74201 8.32734 6.51348 8.27971L5.9976 8.92072C5.94922 8.98083 5.88987 9.02894 5.82344 9.06189C5.75702 9.09483 5.68503 9.11186 5.61221 9.11186H4.8125V10.061C4.8125 10.3755 4.58165 10.6305 4.29688 10.6305H3.4375V11.5797C3.4375 11.8942 3.20665 12.1491 2.92188 12.1491H0.515625C0.23085 12.1491 0 11.8942 0 11.5797V9.72741C0 9.57637 0.054334 9.43151 0.151014 9.32471L3.62723 5.48534C3.50427 5.07355 3.4375 4.63355 3.4375 4.17627C3.4375 1.86978 5.1304 2.3729e-05 7.21873 2.26671e-10C9.31322 -2.37286e-05 11 1.86297 11 4.17629ZM7.21875 3.03729C7.21875 3.66634 7.68045 4.17627 8.25 4.17627C8.81955 4.17627 9.28125 3.66634 9.28125 3.03729C9.28125 2.40824 8.81955 1.8983 8.25 1.8983C7.68045 1.8983 7.21875 2.40824 7.21875 3.03729Z" fill="#D1D1D1"/>
</svg>
