<svg width="233" height="56" viewBox="0 0 233 56" fill="none" xmlns="http://www.w3.org/2000/svg">
<path d="M62.1313 42.397V15.517H67.2001V42.397H62.1313ZM72.4099 42.397V23.3506H77.1715V25.8466H77.8627C78.1699 25.181 78.7459 24.5538 79.5907 23.965C80.4355 23.3506 81.7155 23.0434 83.4307 23.0434C84.9155 23.0434 86.2083 23.389 87.3091 24.0802C88.4355 24.7458 89.3059 25.6802 89.9203 26.8834C90.5347 28.061 90.8419 29.4434 90.8419 31.0306V42.397H86.0035V31.4146C86.0035 29.981 85.6451 28.9058 84.9283 28.189C84.2371 27.4722 83.2387 27.1138 81.9331 27.1138C80.4483 27.1138 79.2963 27.613 78.4771 28.6114C77.6579 29.5842 77.2483 30.9538 77.2483 32.7202V42.397H72.4099ZM99.541 42.397L93.4738 23.3506H98.6194L103.035 38.8642H103.727L108.143 23.3506H113.288L107.221 42.397H99.541ZM124.701 42.9346C122.806 42.9346 121.13 42.5378 119.67 41.7442C118.237 40.925 117.11 39.7858 116.291 38.3266C115.498 36.8418 115.101 35.101 115.101 33.1042V32.6434C115.101 30.6466 115.498 28.9186 116.291 27.4594C117.085 25.9746 118.198 24.8354 119.632 24.0418C121.066 23.2226 122.73 22.813 124.624 22.813C126.493 22.813 128.118 23.2354 129.501 24.0802C130.883 24.8994 131.958 26.0514 132.726 27.5362C133.494 28.9954 133.878 30.6978 133.878 32.6434V34.2946H120.016C120.067 35.6002 120.554 36.6626 121.475 37.4818C122.397 38.301 123.523 38.7106 124.854 38.7106C126.211 38.7106 127.21 38.4162 127.85 37.8274C128.49 37.2386 128.976 36.5858 129.309 35.869L133.264 37.9426C132.906 38.6082 132.381 39.3378 131.69 40.1314C131.024 40.8994 130.128 41.565 129.002 42.1282C127.875 42.6658 126.442 42.9346 124.701 42.9346ZM120.054 30.685H128.963C128.861 29.5842 128.413 28.701 127.619 28.0354C126.851 27.3698 125.84 27.037 124.586 27.037C123.28 27.037 122.243 27.3698 121.475 28.0354C120.707 28.701 120.234 29.5842 120.054 30.685ZM146.095 42.9346C143.612 42.9346 141.577 42.397 139.99 41.3218C138.403 40.2466 137.443 38.7106 137.11 36.7138L141.564 35.5618C141.743 36.4578 142.038 37.1618 142.447 37.6738C142.883 38.1858 143.407 38.557 144.022 38.7874C144.662 38.9922 145.353 39.0946 146.095 39.0946C147.222 39.0946 148.054 38.9026 148.591 38.5186C149.129 38.109 149.398 37.6098 149.398 37.021C149.398 36.4322 149.142 35.9842 148.63 35.677C148.118 35.3442 147.299 35.0754 146.172 34.8706L145.097 34.6786C143.766 34.4226 142.55 34.077 141.449 33.6418C140.348 33.181 139.465 32.5538 138.799 31.7602C138.134 30.9666 137.801 29.9426 137.801 28.6882C137.801 26.7938 138.492 25.3474 139.875 24.349C141.257 23.325 143.075 22.813 145.327 22.813C147.452 22.813 149.219 23.2866 150.627 24.2338C152.035 25.181 152.956 26.4226 153.391 27.9586L148.899 29.341C148.694 28.3682 148.271 27.677 147.631 27.2674C147.017 26.8578 146.249 26.653 145.327 26.653C144.406 26.653 143.702 26.8194 143.215 27.1522C142.729 27.4594 142.486 27.8946 142.486 28.4578C142.486 29.0722 142.742 29.533 143.254 29.8402C143.766 30.1218 144.457 30.3394 145.327 30.493L146.403 30.685C147.836 30.941 149.129 31.2866 150.281 31.7218C151.459 32.1314 152.38 32.733 153.046 33.5266C153.737 34.2946 154.083 35.3442 154.083 36.6754C154.083 38.6722 153.353 40.221 151.894 41.3218C150.46 42.397 148.527 42.9346 146.095 42.9346ZM165.243 42.397C163.989 42.397 162.965 42.013 162.171 41.245C161.403 40.4514 161.019 39.4018 161.019 38.0962V27.3442H156.258V23.3506H161.019V17.437H165.858V23.3506H171.08V27.3442H165.858V37.2514C165.858 38.0194 166.216 38.4034 166.933 38.4034H170.619V42.397H165.243ZM183.847 42.9346C181.953 42.9346 180.251 42.5506 178.74 41.7826C177.23 41.0146 176.039 39.901 175.169 38.4418C174.299 36.9826 173.863 35.229 173.863 33.181V32.5666C173.863 30.5186 174.299 28.765 175.169 27.3058C176.039 25.8466 177.23 24.733 178.74 23.965C180.251 23.197 181.953 22.813 183.847 22.813C185.742 22.813 187.444 23.197 188.955 23.965C190.465 24.733 191.655 25.8466 192.526 27.3058C193.396 28.765 193.831 30.5186 193.831 32.5666V33.181C193.831 35.229 193.396 36.9826 192.526 38.4418C191.655 39.901 190.465 41.0146 188.955 41.7826C187.444 42.5506 185.742 42.9346 183.847 42.9346ZM183.847 38.6338C185.332 38.6338 186.561 38.1602 187.534 37.213C188.507 36.2402 188.993 34.8578 188.993 33.0658V32.6818C188.993 30.8898 188.507 29.5202 187.534 28.573C186.587 27.6002 185.358 27.1138 183.847 27.1138C182.363 27.1138 181.134 27.6002 180.161 28.573C179.188 29.5202 178.702 30.8898 178.702 32.6818V33.0658C178.702 34.8578 179.188 36.2402 180.161 37.213C181.134 38.1602 182.363 38.6338 183.847 38.6338ZM198.297 42.397V23.3506H203.059V25.501H203.75C204.032 24.733 204.493 24.1698 205.133 23.8114C205.798 23.453 206.566 23.2738 207.437 23.2738H209.741V27.5746H207.36C206.131 27.5746 205.12 27.9074 204.326 28.573C203.533 29.213 203.136 30.2114 203.136 31.5682V42.397H198.297ZM218.986 42.9346C217.629 42.9346 216.413 42.7042 215.338 42.2434C214.263 41.757 213.405 41.0658 212.765 40.1698C212.151 39.2482 211.844 38.1346 211.844 36.829C211.844 35.5234 212.151 34.4354 212.765 33.565C213.405 32.669 214.276 32.0034 215.376 31.5682C216.503 31.1074 217.783 30.877 219.216 30.877H224.439V29.8018C224.439 28.9058 224.157 28.1762 223.594 27.613C223.031 27.0242 222.135 26.7298 220.906 26.7298C219.703 26.7298 218.807 27.0114 218.218 27.5746C217.629 28.1122 217.245 28.8162 217.066 29.6866L212.612 28.189C212.919 27.2162 213.405 26.333 214.071 25.5394C214.762 24.7202 215.671 24.0674 216.797 23.581C217.949 23.069 219.344 22.813 220.983 22.813C223.492 22.813 225.476 23.4402 226.935 24.6946C228.394 25.949 229.124 27.7666 229.124 30.1474V37.2514C229.124 38.0194 229.482 38.4034 230.199 38.4034H231.735V42.397H228.509C227.562 42.397 226.781 42.1666 226.167 41.7058C225.552 41.245 225.245 40.6306 225.245 39.8626V39.8242H224.516C224.413 40.1314 224.183 40.541 223.824 41.053C223.466 41.5394 222.903 41.9746 222.135 42.3586C221.367 42.7426 220.317 42.9346 218.986 42.9346ZM219.831 39.0178C221.188 39.0178 222.288 38.6466 223.133 37.9042C224.004 37.1362 224.439 36.125 224.439 34.8706V34.4866H219.562C218.666 34.4866 217.962 34.6786 217.45 35.0626C216.938 35.4466 216.682 35.9842 216.682 36.6754C216.682 37.3666 216.951 37.9298 217.488 38.365C218.026 38.8002 218.807 39.0178 219.831 39.0178Z" fill="#020202"/>
<g filter="url(#filter0_i_247_26)">
<path d="M12.8694 24.8133V32.8758C12.8694 34.7571 12.8694 35.6973 13.235 36.4159C13.5565 37.048 14.0693 37.5624 14.7004 37.8844C15.4171 38.2502 16.3559 38.2502 18.2307 38.2502H37.6945C39.5694 38.2502 40.5068 38.2502 41.2234 37.8844C41.8544 37.5624 42.3692 37.048 42.6907 36.4159C43.0558 35.698 43.0558 34.7591 43.0558 32.8815V24.8133M12.8694 24.8133V21.4541M12.8694 24.8133H43.0558M43.0558 24.8133V21.4541M12.8694 21.4541V20.1107C12.8694 18.2294 12.8694 17.288 13.235 16.5694C13.5565 15.9373 14.0693 15.4238 14.7004 15.1017C15.4178 14.7356 16.3577 14.7356 18.2362 14.7356H37.6897C39.5683 14.7356 40.5061 14.7356 41.2234 15.1017C41.8544 15.4238 42.3692 15.9373 42.6907 16.5694C43.0558 17.2873 43.0558 18.2275 43.0558 20.1052V21.4541M12.8694 21.4541H43.0558M19.5775 31.5318H26.2856" stroke="#E7E7E7" stroke-width="3.35923" stroke-linecap="round" stroke-linejoin="round"/>
</g>
<path d="M15.3188 26.2595L14.9922 28.2891L20.0311 24.8599L25.6065 25.1398L26.8662 27.4493" stroke="#E7E7E7" stroke-width="3.35923" stroke-linecap="round"/>
<g filter="url(#filter1_i_247_26)">
<path d="M12.8694 31.7654V34.1165C12.8694 35.5798 13.0279 36.1517 13.3126 36.7106C13.5631 37.2022 13.8492 37.4571 14.3157 37.807C14.8741 38.0915 15.5614 38.2969 17.0218 38.2969H36.3843M12.8694 31.7654V18.0715M12.8694 31.7654L17.9033 27.5704L17.9075 27.5671C18.8181 26.8082 19.2744 26.428 19.769 26.2736C20.3534 26.0912 20.9829 26.12 21.5483 26.3546C22.0277 26.5535 22.448 26.9738 23.2887 27.8145L23.2971 27.8229C24.1508 28.6766 24.5788 29.1046 25.0658 29.303C25.6422 29.5378 26.2839 29.558 26.8746 29.3621C27.3754 29.196 27.8328 28.7964 28.7474 27.9962L36.384 21.3141" stroke="#B2B2B2" stroke-width="3.35923" stroke-linecap="round" stroke-linejoin="round"/>
</g>
<path d="M24.643 42.7443C27.1129 37.0784 29.3329 34.6993 30.1342 34.218L26.7405 35.662L24.1481 39.9252L23.5353 42.1483L23.0404 43.3404L25.4443 43.9593L28.838 45.2198L30.6763 46.2284L32.9152 40.4753H28.3431V42.1483M28.3431 42.1483V42.7443L29.3801 42.1483H28.3431ZM28.3431 42.1483H26.1749L30.6763 37.8394L32.9152 38.4354H35.6255L34.0229 40.4753L33.6458 41.7358L35.6255 40.4753L38.3357 39.146L40.127 38.4354L41.8474 37.8394L43.4026 36.8768V34.6993L41.8474 35.1806L44.3925 32.1322L44.8875 30.2756L45.9952 27.7544V26.5396M28.8024 34.681L30.692 33.188L33.5147 32.1616L34.6811 31.2285L36.5007 30.5286M30.4121 36.0574V36.9205C32.1694 37.6592 35.6329 39.174 35.4276 39.3233C35.2223 39.4726 37.9392 38.1569 39.3234 37.4804L37.6904 36.9205L39.5566 35.8474L43.3358 35.2176L44.0823 34.8443L44.8754 32.8381L45.0854 31.4151" stroke="#E7E7E7" stroke-width="3.35923" stroke-linecap="round"/>
<g filter="url(#filter2_i_247_26)">
<path d="M46.2428 36.8508L48.9407 27.5113C49.1157 26.9063 48.9936 26.2466 48.597 25.6538C48.2008 25.0609 47.578 24.6068 46.8439 24.3753C45.4011 23.9201 43.9361 24.4722 43.5088 25.6321L40.7794 33.0434L35.3007 35.6401C34.4262 36.0545 33.2891 35.9206 32.4238 35.3644L38.4085 32.4771C39.459 31.9703 39.7736 30.7747 39.1247 29.7553C38.7783 29.211 38.2206 28.7943 37.5535 28.5821C36.8867 28.37 36.2029 28.3914 35.628 28.6425L26.7764 32.509C25.3166 33.1468 24.2362 34.2481 23.7341 35.6102L20.6237 44.0486C20.4997 44.3849 20.73 44.7819 21.1399 44.9394L31.849 49.0455C31.8493 49.0455 31.8497 49.0459 31.85 49.0459C32.0596 49.126 32.2869 49.1306 32.4768 49.0587C32.6671 48.9868 32.8022 48.8449 32.8493 48.6668L33.9833 44.3881L44.0445 39.39C45.1472 38.8424 45.9279 37.9405 46.2428 36.8508ZM43.1289 38.1984L32.8242 43.3177C32.6672 43.3954 32.5574 43.5249 32.516 43.6812L31.501 47.5109L22.3489 44.002L25.2355 36.1704C25.6306 35.0984 26.4809 34.2318 27.6298 33.7299L36.4814 29.8633C36.6935 29.7706 36.9458 29.7627 37.1918 29.841C37.4379 29.919 37.6438 30.0731 37.7717 30.274C38.0112 30.6502 37.8951 31.0914 37.5074 31.2783L30.716 34.5549C30.5379 34.6408 30.4199 34.792 30.39 34.9722C30.3601 35.1525 30.4211 35.3457 30.5584 35.5055C31.9302 37.103 34.4055 37.6906 36.1932 36.8432L41.8972 34.1396C42.0434 34.0705 42.1507 33.9571 42.202 33.8181L45.0103 26.1923C45.1993 25.6786 45.8482 25.4342 46.487 25.6357C46.8132 25.7389 47.0877 25.9393 47.263 26.2017C47.4388 26.4642 47.4928 26.7563 47.4154 27.0242L44.7172 36.3637C44.4897 37.1509 43.926 37.8025 43.1289 38.1984Z" fill="#B2B2B2"/>
</g>
<path d="M37.1988 29.8187C36.9482 29.7389 36.6899 29.7466 36.472 29.8418L27.6204 33.7085C26.4664 34.2126 25.6111 35.0837 25.2136 36.1623L22.327 43.9938L22.319 44.0152L22.3405 44.0237L31.4926 47.533L31.5168 47.542L31.5235 47.5171L32.5385 43.6874C32.578 43.5381 32.683 43.4137 32.8345 43.3383L43.1394 38.2192C43.9415 37.8208 44.5099 37.1642 44.7397 36.3701L47.438 27.0306M37.1988 29.8187C37.4498 29.8983 37.6603 30.0555 37.7913 30.2614C38.0378 30.6486 37.9186 31.1059 37.5174 31.2993L30.7261 34.5759C30.5542 34.6588 30.4415 34.8039 30.413 34.976C30.3844 35.1484 30.4425 35.3347 30.576 35.4902C31.9416 37.0804 34.4058 37.6646 36.1832 36.822L41.8871 34.1185C42.0282 34.0517 42.1308 33.9427 42.1798 33.81L44.9885 26.1842C45.1833 25.6552 45.8474 25.4095 46.4939 25.6134C46.8248 25.7181 47.104 25.9216 47.2824 26.1887M37.1988 29.8187L37.1918 29.841M47.438 27.0306L47.4154 27.0241M47.438 27.0306C47.5173 26.7552 47.4613 26.4561 47.2824 26.1887M47.2824 26.1887L47.263 26.2017M37.1918 29.841C37.4379 29.919 37.6438 30.073 37.7716 30.274C38.0111 30.6502 37.895 31.0914 37.5073 31.2783L31.5069 47.4883L31.5093 47.4891L31.5009 47.5109L31.4784 47.505L31.479 47.5027L22.3488 44.0019L25.2355 36.1704C25.6305 35.0984 26.4809 34.2317 27.6298 33.7298L36.4813 29.8632C36.6935 29.7705 36.9458 29.7627 37.1918 29.841ZM46.8369 24.3976L46.8439 24.3753M46.8369 24.3976C47.5663 24.6276 48.1845 25.0786 48.5775 25.6667C48.9706 26.2546 49.0911 26.9073 48.9185 27.5048L46.2202 36.8443C45.9072 37.9271 45.1316 38.8241 44.034 39.369L33.9729 44.367L33.9635 44.3717L33.9607 44.3822L32.8267 48.6609C32.7818 48.8304 32.6526 48.9673 32.4685 49.0369C32.2846 49.1065 32.0631 49.1022 31.8583 49.0241H31.8582H31.8582H31.8581H31.858H31.858H31.8579H31.8578H31.8578L31.8578 49.0237H31.8577H31.8576H31.8576H31.8575H31.8575H31.8574H31.8573H31.8573L21.1483 44.9176C20.7459 44.7632 20.5274 44.3771 20.6455 44.0564L23.7559 35.6182C24.2556 34.2627 25.3311 33.1658 26.7857 32.5304L35.6373 28.6638C36.2064 28.4152 36.8843 28.3937 37.5464 28.6043C38.2088 28.815 38.7617 29.2285 39.1048 29.7677C39.7467 30.7762 39.4353 31.9557 38.3983 32.4561L32.4137 35.3434L32.3761 35.3615L32.4112 35.384C33.2821 35.9438 34.4277 36.0796 35.3107 35.6611L40.7895 33.0644L40.798 33.0604L40.8011 33.0514L43.5309 25.6402C43.9524 24.4956 45.4018 23.9447 46.8369 24.3976Z" stroke="white" stroke-opacity="0.04" stroke-width="0.046656"/>
<defs>
<filter id="filter0_i_247_26" x="11.1898" y="13.0559" width="33.5457" height="27.0606" filterUnits="userSpaceOnUse" color-interpolation-filters="sRGB">
<feFlood flood-opacity="0" result="BackgroundImageFix"/>
<feBlend mode="normal" in="SourceGraphic" in2="BackgroundImageFix" result="shape"/>
<feColorMatrix in="SourceAlpha" type="matrix" values="0 0 0 0 0 0 0 0 0 0 0 0 0 0 0 0 0 0 127 0" result="hardAlpha"/>
<feOffset dy="0.186624"/>
<feGaussianBlur stdDeviation="0.093312"/>
<feComposite in2="hardAlpha" operator="arithmetic" k2="-1" k3="1"/>
<feColorMatrix type="matrix" values="0 0 0 0 0 0 0 0 0 0 0 0 0 0 0 0 0 0 0.25 0"/>
<feBlend mode="normal" in2="shape" result="effect1_innerShadow_247_26"/>
</filter>
<filter id="filter1_i_247_26" x="11.1898" y="16.3918" width="26.8741" height="23.7713" filterUnits="userSpaceOnUse" color-interpolation-filters="sRGB">
<feFlood flood-opacity="0" result="BackgroundImageFix"/>
<feBlend mode="normal" in="SourceGraphic" in2="BackgroundImageFix" result="shape"/>
<feColorMatrix in="SourceAlpha" type="matrix" values="0 0 0 0 0 0 0 0 0 0 0 0 0 0 0 0 0 0 127 0" result="hardAlpha"/>
<feOffset dy="0.186624"/>
<feGaussianBlur stdDeviation="0.093312"/>
<feComposite in2="hardAlpha" operator="arithmetic" k2="-1" k3="1"/>
<feColorMatrix type="matrix" values="0 0 0 0 0 0 0 0 0 0 0 0 0 0 0 0 0 0 0.25 0"/>
<feBlend mode="normal" in2="shape" result="effect1_innerShadow_247_26"/>
</filter>
<filter id="filter2_i_247_26" x="20.5901" y="24.2161" width="28.4284" height="24.94" filterUnits="userSpaceOnUse" color-interpolation-filters="sRGB">
<feFlood flood-opacity="0" result="BackgroundImageFix"/>
<feBlend mode="normal" in="SourceGraphic" in2="BackgroundImageFix" result="shape"/>
<feColorMatrix in="SourceAlpha" type="matrix" values="0 0 0 0 0 0 0 0 0 0 0 0 0 0 0 0 0 0 127 0" result="hardAlpha"/>
<feOffset dy="0.046656"/>
<feGaussianBlur stdDeviation="0.093312"/>
<feComposite in2="hardAlpha" operator="arithmetic" k2="-1" k3="1"/>
<feColorMatrix type="matrix" values="0 0 0 0 0 0 0 0 0 0 0 0 0 0 0 0 0 0 0.25 0"/>
<feBlend mode="normal" in2="shape" result="effect1_innerShadow_247_26"/>
</filter>
</defs>
</svg>
