<svg width="15" height="13" viewBox="0 0 15 13" fill="none" xmlns="http://www.w3.org/2000/svg">
<path d="M1 8.00016V9.26C1 10.0441 1 10.4358 1.15259 10.7353C1.28681 10.9987 1.50083 11.2133 1.76426 11.3476C2.06344 11.5 2.4553 11.5 3.23784 11.5H13.6001M1 8.00016V1M1 8.00016L3.69738 5.75234L3.69961 5.75055C4.18756 5.34392 4.43202 5.14021 4.69708 5.05747C5.01021 4.95972 5.3475 4.97518 5.65049 5.10088C5.90735 5.20744 6.13258 5.43266 6.58303 5.88312L6.58755 5.88764C7.045 6.34509 7.27433 6.57442 7.53532 6.68074C7.84415 6.80656 8.18797 6.81739 8.50449 6.7124C8.77285 6.62338 9.01794 6.40928 9.50801 5.98047L13.6 2.4" stroke="white" stroke-width="1.4" stroke-linecap="round" stroke-linejoin="round"/>
</svg>
